<svg id="Capa_1" data-name="Capa 1" xmlns="http://www.w3.org/2000/svg" viewBox="0 0 79.12 84.36"><defs><style>.cls-1{fill:#fe000c;}</style></defs><title>ducati</title><path class="cls-1" d="M50.07,21.6h2V17.27h0Zm21,4.66H66.5L69,14.75H73.5Zm-8.25,0H58.25L60,17.84H57.2l.66-3.09H68.08l-.65,3.09H64.6Zm-10.66,0,0-1.85H48.8l-.86,1.85H43.58L49.7,14.75h5.91l1.26,11.51Zm-13.8.3c-4,0-5.37-2.46-4.6-6.1a7,7,0,0,1,7.19-6c2.9,0,5.11,1.18,4.4,4.56H41.17c.21-1.31-.21-1.57-.77-1.57-1.18,0-1.55,1.22-1.94,3.06s-.55,3.06.59,3.06c.59,0,1.07-.35,1.38-1.56h4.28c-.67,3.17-3.51,4.56-6.36,4.56m-12.49,0c-3.47,0-5.17-1.39-4.58-4.16l1.63-7.65h4.56l-1.59,7.46c-.19.91.16,1.26.64,1.26s1-.35,1.18-1.26l1.58-7.46h4.56L32.21,22.4c-.59,2.77-2.88,4.16-6.35,4.16m-5.33-5.93a6.87,6.87,0,0,1-7,5.63H7.86l2.45-11.51h5.4c4.6,0,5.54,2.47,4.82,5.88m53.8-11.5A76.87,76.87,0,0,0,40.68,1.72,76.8,76.8,0,0,0,7,9.13C3.11,11.05,1.13,14.69,1.13,20a25.5,25.5,0,0,0,.26,3.59l.09.64A92.14,92.14,0,0,0,5.27,41.14c2.94-3.78,14.64-7,35.41-8.09,19.59-1,33.58-1,37.85-.91.77-3.6,1.15-6.42,1.36-7.94l.09-.64c1-7.25-.89-12.11-5.65-14.43M14.66,17.36h-.45l-1.33,6.28h.44a2,2,0,0,0,1.61-.73,5.69,5.69,0,0,0,.9-2.41A4.61,4.61,0,0,0,16,18.1a1.22,1.22,0,0,0-1.29-.74m41.4,20.58c-22.59,3.53-33.52,9.5-38.85,15.13-4.08,4.31-2.66,7.63-1.57,9.53A87.65,87.65,0,0,0,28,77.77c1.6,1.6,6.68,6.34,8.88,7.44a8.71,8.71,0,0,0,7.59,0c2.19-1.1,7.28-5.84,8.88-7.44C61.68,69.45,66.84,62,72.42,50.36a80.58,80.58,0,0,0,5.22-14.49l0-.06a161.83,161.83,0,0,0-21.6,2.13" transform="translate(-1.13 -1.72)"/></svg>