<?xml version="1.0" encoding="utf-8"?>
<!-- Generator: Adobe Illustrator 24.0.2, SVG Export Plug-In . SVG Version: 6.00 Build 0)  -->
<svg version="1.1" id="Capa_1" xmlns="http://www.w3.org/2000/svg" xmlns:xlink="http://www.w3.org/1999/xlink" x="0px" y="0px"
	 viewBox="0 0 542 72" style="enable-background:new 0 0 542 72;" xml:space="preserve">
<style type="text/css">
	.st0{fill:#FA0F0C;}
</style>
<path class="st0" d="M163.46,53.21c2.07-0.28,8.42-3.9,10.18-3.64c-0.26,0.63-0.4,1.33-0.4,2.05c0,3.03,2.46,5.48,5.48,5.48
	c3.03,0,5.48-2.46,5.48-5.48c0-2.81-2.11-5.12-4.83-5.44c-0.56-3.93,1.45-8.9-5.47-10.12c1.88,1.45,0.93,7.67,0.93,7.67l-3.26-3.62
	c-0.66-0.21-1.37-0.48-1.89-0.76c-3.98-0.73-5.2,5.73-8.65,1.35l-7.75-0.41c-0.19,0.91-0.51,2.38-0.82,3.78l1.09-2.55l6.53,2.16
	l-2.42,3.06c-0.75-0.38-1.6-0.6-2.5-0.6c-3.03,0-5.48,2.46-5.48,5.48c0,3.03,2.46,5.48,5.48,5.48s5.48-2.46,5.48-5.48
	c0-0.51-0.07-1-0.2-1.46 M155.18,54.96c-1.85,0-3.35-1.5-3.35-3.35s1.5-3.35,3.35-3.35s3.35,1.5,3.35,3.35
	S157.03,54.96,155.18,54.96z M178.73,54.96c-1.85,0-3.35-1.5-3.35-3.35s1.5-3.35,3.35-3.35c1.85,0,3.35,1.5,3.35,3.35
	S180.58,54.96,178.73,54.96z"/>
<path class="st0" d="M358.07,53.21c2.07-0.28,8.42-3.9,10.18-3.64c-0.26,0.63-0.4,1.33-0.4,2.05c0,3.03,2.46,5.48,5.48,5.48
	s5.48-2.46,5.48-5.48c0-2.81-2.11-5.12-4.83-5.44c-0.56-3.93,1.45-8.9-5.47-10.12c1.88,1.45,0.93,7.67,0.93,7.67l-3.26-3.62
	c-0.66-0.21-1.37-0.48-1.89-0.76c-3.98-0.73-5.2,5.73-8.65,1.35l-7.75-0.41c-0.19,0.91-0.51,2.38-0.82,3.78l1.09-2.55l6.53,2.16
	l-2.42,3.06c-0.75-0.38-1.6-0.6-2.5-0.6c-3.03,0-5.48,2.46-5.48,5.48c0,3.03,2.46,5.48,5.48,5.48c3.03,0,5.48-2.46,5.48-5.48
	c0-0.51-0.07-1-0.2-1.46 M349.78,54.96c-1.85,0-3.35-1.5-3.35-3.35s1.5-3.35,3.35-3.35c1.85,0,3.35,1.5,3.35,3.35
	S351.63,54.96,349.78,54.96z M373.33,54.96c-1.85,0-3.35-1.5-3.35-3.35s1.5-3.35,3.35-3.35s3.35,1.5,3.35,3.35
	S375.18,54.96,373.33,54.96z"/>
</svg>
